<?xml version="1.0" encoding="utf-8"?>
<!-- Generator: Adobe Illustrator 26.0.1, SVG Export Plug-In . SVG Version: 6.00 Build 0)  -->
<svg version="1.1" id="Layer_1" xmlns="http://www.w3.org/2000/svg" xmlns:xlink="http://www.w3.org/1999/xlink" x="0px" y="0px"
	 viewBox="0 0 512 512" style="enable-background:new 0 0 512 512;" xml:space="preserve">
<style type="text/css">
	.st0{fill:url(#SVGID_1_);}
	.st1{fill:url(#SVGID_00000079480023626937305540000004178488165410717079_);}
	.st2{fill:url(#SVGID_00000155124588897062519700000001525084990778954125_);}
	.st3{fill:url(#SVGID_00000076581629310733212970000007088291684651795862_);}
	.st4{fill:url(#SVGID_00000062909547155797841560000004445828181313816252_);}
	.st5{fill:url(#SVGID_00000125576391771994337200000016823854694201801858_);}
	.st6{fill:#231F20;}
	.st7{fill:#FFFFFF;}
</style>
<g>
	<g>
		<g>
			<g>
				<linearGradient id="SVGID_1_" gradientUnits="userSpaceOnUse" x1="143.6856" y1="326.1752" x2="143.6856" y2="238.5032">
					<stop  offset="0" style="stop-color:#7FFEFE"/>
					<stop  offset="0.5161" style="stop-color:#6760DA"/>
					<stop  offset="1" style="stop-color:#3A1360"/>
				</linearGradient>
				<path class="st0" d="M176.4,238.5l-0.8,48.4c0,0-0.1,2.7-0.6,3.4l-21.5,25.8c0,0-35.6,12.1-38.9,9.8c-5.3-2.5-3.3-7-3.3-7
					L176.4,238.5z"/>
				
					<linearGradient id="SVGID_00000064336922320514726940000013783334293511770550_" gradientUnits="userSpaceOnUse" x1="87.9035" y1="408.619" x2="242.4142" y2="408.619">
					<stop  offset="0" style="stop-color:#7FFEFE"/>
					<stop  offset="0.5161" style="stop-color:#6760DA"/>
					<stop  offset="1" style="stop-color:#3A1360"/>
				</linearGradient>
				<path style="fill:url(#SVGID_00000064336922320514726940000013783334293511770550_);" d="M87.9,419.4l5.6,37.3
					c0,0,1.7,10.8,13.4,7.8l127.9-66.6c0,0,2.1-1.4,2.4-3.5l5.3-42.2L87.9,419.4z"/>
				
					<linearGradient id="SVGID_00000074419100583331774290000010363412138855521210_" gradientUnits="userSpaceOnUse" x1="331.9041" y1="183.0845" x2="167.3515" y2="159.9582">
					<stop  offset="1.999281e-02" style="stop-color:#6760DA"/>
					<stop  offset="1" style="stop-color:#1B1B3A"/>
				</linearGradient>
				<path style="fill:url(#SVGID_00000074419100583331774290000010363412138855521210_);" d="M240.8,116.3l-5.2,56.6
					c0,0-0.2,3.9-1.1,4.8l-31.6,38.7c0,0-1.1,2-4.3,1.9l-49.6-7.1l-44-53c0,0-2.8-11.3,5-11l93,16.4L240.8,116.3z"/>
				
					<linearGradient id="SVGID_00000004508599535424138560000015347339208053788827_" gradientUnits="userSpaceOnUse" x1="206.7947" y1="213.3321" x2="232.9606" y2="115.6748">
					<stop  offset="0" style="stop-color:#7FFEFE"/>
					<stop  offset="0.1222" style="stop-color:#6760DA"/>
					<stop  offset="1" style="stop-color:#3A1360"/>
				</linearGradient>
				<path style="fill:url(#SVGID_00000004508599535424138560000015347339208053788827_);" d="M201.6,164l39.2-47.6l-5.2,56.6
					c0,0-0.2,3.9-1.1,4.8l-31.6,38.7c0,0-1.2,1.5-1.9,1.5L201.6,164"/>
				
					<linearGradient id="SVGID_00000003069134051754790340000001768981761434525333_" gradientUnits="userSpaceOnUse" x1="297.1891" y1="261.7469" x2="297.1891" y2="187.0284">
					<stop  offset="0" style="stop-color:#7FFEFE"/>
					<stop  offset="0.5161" style="stop-color:#6760DA"/>
					<stop  offset="1" style="stop-color:#3A1360"/>
				</linearGradient>
				<path style="fill:url(#SVGID_00000003069134051754790340000001768981761434525333_);" d="M262,187l6.5,51.5c0,0,0,3.2,2.1,4.7
					l26.6,18.5l35.3-23.2L262,187z"/>
				<g>
					
						<linearGradient id="SVGID_00000139262162476624124480000018318092707134105276_" gradientUnits="userSpaceOnUse" x1="356.6169" y1="380.2024" x2="356.6169" y2="238.503">
						<stop  offset="0" style="stop-color:#7FFEFE"/>
						<stop  offset="0.5161" style="stop-color:#6760DA"/>
						<stop  offset="1" style="stop-color:#3A1360"/>
					</linearGradient>
					<path style="fill:url(#SVGID_00000139262162476624124480000018318092707134105276_);" d="M263.4,333.5l6.5,41.5
						c0,0,0,5.9,6.7,5.2l160.7-84c0,0,4.1-0.6,5.6-6.9l6.8-50.8L263.4,333.5z"/>
				</g>
			</g>
			<g>
				<path class="st6" d="M176.4,238.5l-0.8,48.4c0,0-0.1,2.7-0.6,3.4l-21.5,25.8c0,0-35.6,12.1-38.9,9.8c-5.3-2.5-3.3-7-3.3-7
					L176.4,238.5z"/>
				<path class="st6" d="M87.9,419.4l5.6,37.3c0,0,1.7,10.8,13.4,7.8l127.9-66.6c0,0,2.1-1.4,2.4-3.5l5.3-42.2L87.9,419.4z"/>
				<path class="st6" d="M240.8,116.3l-5.2,56.6c0,0-0.2,3.9-1.1,4.8l-31.6,38.7c0,0-1.1,2-4.3,1.9l-49.6-7.1l-44-53
					c0,0-2.8-11.3,5-11l93,16.4L240.8,116.3z"/>
				<path class="st6" d="M201.6,164l39.2-47.6l-5.2,56.6c0,0-0.2,3.9-1.1,4.8l-31.6,38.7c0,0-1.2,1.5-1.9,1.5L201.6,164"/>
				<path class="st6" d="M262,187l6.5,51.5c0,0,0,3.2,2.1,4.7l26.6,18.5l35.3-23.2L262,187z"/>
				<g>
					<path class="st6" d="M263.4,333.5l6.5,41.5c0,0,0,5.9,6.7,5.2l160.7-84c0,0,4.1-0.6,5.6-6.9l6.8-50.8L263.4,333.5z"/>
				</g>
			</g>
		</g>
		<g>
			<path class="st7" d="M443.7,228.9l-174-98.1c-3.7-2.1-8.3,0.6-8.3,4.9L262,187c0,1.8,0.9,3.5,2.4,4.5l60.9,42.6
				c3.2,2.2,3.1,7-0.1,9.2l-59.9,39.6c-1.6,1-2.5,2.8-2.5,4.7l0.7,45.9c0.1,4.1,4.5,6.7,8.1,4.8l172.2-90.2
				C451.8,244.2,451.8,232.8,443.7,228.9z"/>
			<path class="st6" d="M269.7,288.3l59.2-39.1c3.5-2.3,5.6-6.1,5.6-10.3c0.1-4.2-1.9-8.1-5.4-10.4L269,186.2l-0.5-48l172,97
				l0.2,0.1c1.9,0.9,2.1,2.6,2.1,3.3c0,0.7-0.2,2.4-2.1,3.3l-0.2,0.1L270.4,331L269.7,288.3z"/>
		</g>
		<g>
			<path class="st7" d="M201.2,301.5l-81.5,23.2c-5.2,1.5-9.3-4.7-5.8-8.9l61.2-73.4c1.7-2.1,1.7-5.1-0.1-7.2l-64.7-75.1
				c-3.4-3.9-0.1-9.9,5-9.1l85.2,12.9c1.9,0.3,3.9-0.5,5.1-2l33.8-41.5c2.3-2.8,1.3-7-1.9-8.5L103.1,48c-7-3.4-15.2,1.8-15.2,9.6
				l0,361.8c0,7.8,8.1,13,15.2,9.6l136.3-71c3-1.6,3.9-5.5,1.9-8.2l-34.2-46.2C205.8,301.6,203.4,300.8,201.2,301.5z"/>
			<path class="st6" d="M98.5,423c-1.7,0-3.6-1.4-3.6-3.6V57.6c0-2.2,1.9-3.6,3.6-3.6c0.5,0,1,0.1,1.6,0.4L233,117.4l-32.1,39.5
				l-84.4-12.8c-0.6-0.1-1.3-0.1-1.9-0.1c-4.9,0-9.3,2.9-11.3,7.3c-2.1,4.5-1.3,9.6,1.9,13.4l63.9,74.2l-60.4,72.4
				c-3.2,3.8-3.8,8.9-1.7,13.3c2.1,4.4,6.5,7.3,11.3,7.3c1.2,0,2.3-0.2,3.5-0.5l80.5-22.9l32.5,44.1L100,422.7
				C99.5,422.9,99,423,98.5,423z"/>
		</g>
	</g>
</g>
</svg>
